<?xml version="1.0" encoding="UTF-8"?>
<!-- Created with Inkscape (http://www.inkscape.org/) -->
<svg width="167.44mm" height="85.636mm" version="1.1" viewBox="0 0 167.4435 85.635765" xmlns="http://www.w3.org/2000/svg" xmlns:cc="http://creativecommons.org/ns#" xmlns:dc="http://purl.org/dc/elements/1.1/" xmlns:rdf="http://www.w3.org/1999/02/22-rdf-syntax-ns#">
 <metadata>
  <rdf:RDF>
   <cc:Work rdf:about="">
    <dc:format>image/svg+xml</dc:format>
    <dc:type rdf:resource="http://purl.org/dc/dcmitype/StillImage"/>
    <dc:title/>
   </cc:Work>
  </rdf:RDF>
 </metadata>
 <g transform="translate(-21.162 -70.826)">
  <path d="m110.75 126.35c-20.685-16.501-37.955-30.172-38.378-30.381-0.65041-0.32085-3.0683 0.99141-15.653 8.4957l-14.884 8.8752 1.6998 1.0704c0.9349 0.58871 7.5946 4.6422 14.799 9.0079l13.099 7.9375 0.0038 12.4 0.0038 12.4-1.4526-0.87187c-0.79912-0.47953-12.019-7.2502-24.933-15.046l-23.481-14.174-0.013187-12.696-0.013186-12.696 25.146-15.039c22.81-13.642 25.207-14.987 25.797-14.481 1.3908 1.1927 75.138 59.889 75.571 60.148 0.28268 0.16899 5.1256-3.2284 12.585-8.8288l12.126-9.1035-12.113-8.9217-12.113-8.9217v-24.808l20.212 15.012 20.212 15.012 0.0102 12.565 0.0102 12.565-20.316 15.241-20.316 15.241-37.609-30.001z" fill="#fff"/>
 </g>
</svg>
